<svg xmlns="http://www.w3.org/2000/svg" viewBox="0 0 1999.398 1560.338"><defs><style>.cls-1{fill:#201e51;}.cls-2{fill:#2c2c75;}.cls-3{fill:#8484af;}.cls-4{fill:#575a8e;}.cls-5{fill:#ef5ea2;}.cls-6{fill:#af3874;}.cls-7{fill:#fec83d;}.cls-8{fill:#d5d3ea;}.cls-9{fill:#fff;}.cls-10{fill:#ec5946;}.cls-11{fill:#202b35;}.cls-12{fill:#440235;}.cls-13{fill:#8889c2;}.cls-14{fill:#656796;}.cls-15{fill:#ef7c2e;}.cls-16{fill:#151d23;}.cls-17{fill:#8681bd;}</style></defs><g id="object"><path class="cls-1" d="M2067.969,1625.457H180.567c30.25-27.867,40.963-76.553,35.357-117.3s-23.074-78.72-37.6-117.2c-42.777-113.342-54.884-256.309,30.712-342.038C267.6,990.268,360.258,971.606,410.2,905.463c70.6-93.5,22.191-229.189,53.587-342.063,36.054-129.614,193.641-210.144,319.8-163.424,27.551,10.2,53.56,25.465,82.529,30.366,68.845,11.646,131.431-36.348,191.684-71.63a595.637,595.637,0,0,1,244.9-78.772c54.2-5.036,111.677-1.834,158.423,26.055,104.154,62.139,114.64,216.964,210.661,291.053,58.749,45.331,138.12,51.553,205.817,81.94,97.858,43.925,170.43,149.84,156.636,256.213-7.854,60.564-41.526,118.983-31.151,179.168,10.985,63.72,67.308,108.124,101.984,162.7C2168.972,1377.626,2154.823,1543.91,2067.969,1625.457Z" transform="translate(-145.287 -277.964)"/><path class="cls-2" d="M400.271,1195.739c-27.089-9.43-57.219,11.694-67.715,38.388s-6.488,56.658-1.487,84.9c19.253,108.738,52.833,218.551,118.281,306.428H579.109c-27.386-140.718-57.779-286.617-144.744-400.5C425.146,1212.881,414.617,1200.734,400.271,1195.739Z" transform="translate(-145.287 -277.964)"/><path class="cls-1" d="M525.215,1610.347c-8.884-24.931-19.676-49.294-29.277-73.966q-14.607-37.538-28.762-75.249-27.891-74.55-53.772-149.854c-9.8-28.478-19.916-56.843-29.568-85.373-1.686-4.985-9.457-2.952-7.955,2.193,29.917,102.466,64.774,203.359,103.469,302.841,10.957,28.172,21.254,56.992,33.956,84.429C516.384,1622.015,527.694,1617.3,525.215,1610.347Z" transform="translate(-145.287 -277.964)"/><path class="cls-2" d="M619.557,1084c-22.806-4.548-41.179,18.545-50.581,39.814-35.175,79.572-29.877,171.447-10.55,256.273,18.871,82.825,50.3,162.437,68.594,245.367H735.235c-.4-173.437-5.032-352.543-82.09-507.367C645.771,1103.275,635.786,1087.239,619.557,1084Z" transform="translate(-145.287 -277.964)"/><path class="cls-1" d="M681.538,1569.748c-1.047-8.588-2.2-17.163-3.314-25.742-2.148-16.553-4.151-33.134-6.621-49.643a384.332,384.332,0,0,0-10.092-48.071c-4.511-15.913-9.725-31.658-12.782-47.944-11.037-58.8,4.253-121.172-21.462-177.294-6.958-15.188-16.308-28.991-19.557-45.647a74.575,74.575,0,0,1,7.357-48.338,2.674,2.674,0,0,0-4.614-2.7,79.357,79.357,0,0,0-12.765,38.534c-.912,15.039,3.1,28.817,9.408,42.324,6.531,13.977,13.285,27.3,16.98,42.384,3.643,14.882,5.047,30.15,5.566,45.431,1.045,30.839-1.044,61.833,2.252,92.574,3.55,33.12,16.4,63.974,22.319,96.62,3.355,18.495,5.5,37.191,7.9,55.827,1.273,9.9,2.509,19.807,3.826,29.7,1.3,9.783,1.927,20.051,4.8,29.5,2.212,7.289,12.88,5.812,13.167-1.782C684.225,1586.9,682.577,1578.262,681.538,1569.748Z" transform="translate(-145.287 -277.964)"/><path class="cls-2" d="M2089.959,1416.563c-2.183-12.342-6.048-25.093-15.179-33.678-19.173-18.026-50.771-9.351-73.077,4.613-81.831,51.227-117.057,149.5-156.687,237.959h170.669c8.184-9.166,15.988-18.673,23.305-28.6C2077.082,1545.167,2101.145,1479.788,2089.959,1416.563Z" transform="translate(-145.287 -277.964)"/><path class="cls-2" d="M952.861,1523.328c-3.765-11.731-9.31-23.117-10.191-35.406-1.942-27.093,18.471-49.783,33.34-72.515,17.07-26.1,28.1-58.34,20.344-88.545-8.108-31.586-35.655-57.528-35.758-90.138-.174-55.23,77.585-92.755,65.829-146.719-5.367-24.633-28.117-40.945-49.15-54.845l-73.849,70.564c-13.871,13.254-28.586,28.148-30.7,47.216-2.988,27,20.509,51.243,19.086,78.375-2.326,44.358-64.1,60.323-81.5,101.19-20,46.951,27.126,102.074,9.168,149.842-5.306,14.113-15.743,25.558-25.1,37.377a304.571,304.571,0,0,0-54.043,105.733H940.213C958.022,1594.936,963.693,1557.079,952.861,1523.328Z" transform="translate(-145.287 -277.964)"/><path class="cls-1" d="M966.576,1203.69c3.056-3.173-1.777-8.019-4.84-4.839-9.29,9.646-18,19.325-25.142,30.723a148.134,148.134,0,0,0-22.122,77.4c-.131,15.732,2.577,31.247,4.363,46.827,1.748,15.247,2.758,30.984-1.545,45.912-3.674,12.749-10.964,24-17.592,35.366-6.5,11.135-12.95,22.921-15.424,35.707-3.064,15.837.656,31.662-.859,47.56-1.442,15.129-7.7,29.485-15.319,42.461a242.232,242.232,0,0,1-13.625,20.47c-4.827,6.587-10.106,12.83-14.093,19.977-3.848,6.9,5.017,13.5,10.749,8.294,10.328-9.385,18.581-21.931,26.086-33.634,7.674-11.967,14.288-24.861,18.222-38.57,4.229-14.742,3.81-29.165,3.045-44.307a76.4,76.4,0,0,1,8.1-39.454c5.816-11.712,13.041-22.675,18.514-34.566a99.9,99.9,0,0,0,9.361-42.918c-.136-29.936-9.278-58.979-5.225-89.052C933.213,1257.514,945.635,1225.432,966.576,1203.69Z" transform="translate(-145.287 -277.964)"/><path class="cls-2" d="M1871.5,1218.687c-2.428-36.681-15.953-80.359-51.771-88.632-22.3-5.15-45.3,6.253-62.622,21.2-66.841,57.667-72.426,157.5-72.961,245.774l-1.386,228.426h79.013C1822.349,1496.318,1880.876,1360.42,1871.5,1218.687Z" transform="translate(-145.287 -277.964)"/><path class="cls-2" d="M1625.283,1497.079c4.338-28.989,14.45-59.59,2.95-86.551-15.473-36.279-65.9-54.3-68.263-93.665-1.746-29.147,25.247-53.228,26.947-82.378,2.914-49.943-66.953-82.625-61.823-132.39-29.178-1.689-44.54,35.58-41.762,64.675s14.419,59.377,3.5,86.49c-3.088,7.669-7.911,14.727-9.5,22.84-6.9,35.229,48.181,62.376,37.408,96.618-4.2,13.353-17.47,21.76-24.045,34.118-25.181,47.326,59.755,98.259,39.554,147.915-6.442,15.833-22.383,26.021-29.949,41.348-4.587,9.293-5.653,19.247-4.574,29.358h150.7C1626.656,1586.1,1618.759,1540.682,1625.283,1497.079Z" transform="translate(-145.287 -277.964)"/><path class="cls-1" d="M1595.082,1505.979c-4.892-15.311-13.268-29.443-17.571-44.942-4.6-16.579-.271-32.757.737-49.464.968-16.03-3.6-30.38-12.356-44.031-7.9-12.324-18.218-23.5-24.158-36.884-13.4-30.192.054-64.223-2.2-95.6-1.3-18.064-8.37-34.392-15.213-51.1-6.544-15.979-12.71-32.974-6.7-49.931.962-2.712-3.628-4.6-4.969-1.969-14.754,28.9,6.329,58.408,13.382,86.349,8.065,31.956-6.37,64.27-2.314,96.459,1.953,15.5,8.488,28.847,17.332,41.891,8.2,12.1,17.917,24.128,21.016,38.474,3.587,16.6-2.932,33.656-3,50.308-.064,16.52,6.5,31.516,13.019,46.543,3.657,8.429,7.2,16.957,9.153,25.9,2.071,9.495,2.048,19.341,1,28.951a159.821,159.821,0,0,1-6.154,28.046c-2.973,9.971-7.08,19.652-8.523,29.932-.973,6.93,10.057,8.737,13.364,3.4,4.744-7.651,7.376-16.408,10.018-24.879a203.375,203.375,0,0,0,6.441-25.775C1600.372,1540.4,1600.472,1522.853,1595.082,1505.979Z" transform="translate(-145.287 -277.964)"/><ellipse class="cls-3" cx="1034.776" cy="1525.065" rx="245.296" ry="35.273"/><path class="cls-4" d="M872.623,1156.769v98.836a46.855,46.855,0,0,0,46.854,46.854h433a46.854,46.854,0,0,0,46.853-46.854v-98.836Z" transform="translate(-145.287 -277.964)"/><path class="cls-4" d="M793.177,562.569H1193.8a53.9,53.9,0,0,1,53.9,53.9v337.14a0,0,0,0,1,0,0H739.28a0,0,0,0,1,0,0V616.466A53.9,53.9,0,0,1,793.177,562.569Z"/><path class="cls-5" d="M1146.367,396.438c-43.606,6.479-79.726,46.676-81.522,90.724-.677,16.613,2.971,33.054,6.122,49.38,3.861,20.007,7.009,40.518,4.178,60.7-2.661,18.959-10.474,36.752-18.206,54.266C1007.849,762.7,932.075,844.65,926.466,966.067c-1.347,29.143,2.925,59.6,19,83.942,8.566,12.972,20.16,23.718,32.713,32.888,64.881,47.4,150.811,52.006,231.154,51.007,54.679-.679,115.034-5.516,153.332-44.549,42.953-43.777,41.671-114.725,24.48-173.6-28.463-97.472-91.521-182.666-115.327-281.379-12.082-50.1-13.628-102.083-21.43-153.026-4.623-30.185-14.736-64.257-42.708-76.507A110.975,110.975,0,0,0,1146.367,396.438Z" transform="translate(-145.287 -277.964)"/><path class="cls-6" d="M1387.146,915.758c-28.463-97.472-91.521-182.666-115.327-281.379-12.082-50.1-13.628-102.083-21.43-153.027-3.762-24.566-11.163-51.7-28.866-67.561-11.9,12.321-24.324,24.115-38.3,33.959-18.883,13.3-40.973,22.959-64.055,23.751l13.1-26.779c-19.143,17.914-42.1,35.062-67.209,39.243-.083,1.064-.164,2.128-.208,3.2-.677,16.613,2.971,33.054,6.122,49.38,3.861,20.007,7.009,40.518,4.178,60.7-2.661,18.959-10.474,36.752-18.206,54.266C1007.849,762.7,932.075,844.65,926.466,966.067c-1.347,29.143,2.925,59.6,19,83.942,8.566,12.972,20.16,23.718,32.713,32.888,64.881,47.4,150.811,52.006,231.154,51.007,54.679-.679,115.034-5.516,153.332-44.549C1405.619,1045.578,1404.337,974.63,1387.146,915.758Z" transform="translate(-145.287 -277.964)"/><path class="cls-7" d="M1212.218,501.2c-1.005,84.361-9.36,115.984-64.42,115.857-54.439-.125-59.453-115.857-59.453-115.857,4.081,9.852,8.009,19.428,15.294,27.216,21.107-1.962,35.438-17.708,55.027-25.809-5.593,12.922-13.292,22.82-23.828,32.161C1161.6,529.317,1191.875,519.432,1212.218,501.2Z" transform="translate(-145.287 -277.964)"/><circle class="cls-8" cx="966.441" cy="265.075" r="31.758"/><circle class="cls-8" cx="1040.761" cy="265.075" r="31.758"/><path class="cls-9" d="M1115.968,511.571q-17.628,20.728-34.047,42.446a31.726,31.726,0,0,0,5.929,9.948c9.739-17.634,19.807-35.08,30.813-51.916Q1117.336,511.754,1115.968,511.571Z" transform="translate(-145.287 -277.964)"/><path class="cls-9" d="M1132.448,518.982c-7.53,8.818-14.117,18.522-21.052,27.851q-8.508,11.443-17.836,22.247a31.581,31.581,0,0,0,16.172,5.648q13.638-25.734,26.533-51.851A31.92,31.92,0,0,0,1132.448,518.982Z" transform="translate(-145.287 -277.964)"/><path class="cls-9" d="M1186.048,511.281c-.2,0-.39.011-.586.015-9.75,15.269-18.574,31.126-27.218,47.091a31.89,31.89,0,0,0,5.968,7.7q11.716-27.534,24.267-54.7C1187.675,511.322,1186.867,511.281,1186.048,511.281Z" transform="translate(-145.287 -277.964)"/><path class="cls-9" d="M1209.213,521.326q-20.554,23.957-41.11,47.912a31.567,31.567,0,0,0,13.08,5.187l30.486-50.146A31.981,31.981,0,0,0,1209.213,521.326Z" transform="translate(-145.287 -277.964)"/><path class="cls-10" d="M1256.32,951.239c-14.735-35.092,70.262-293.347,70.262-293.347l-150.066-53.687-14.75-2.919v-3.631l-9.176,1.816-9.175-1.816v3.631l-14.75,2.919L978.6,657.892s85,258.255,70.262,293.347-122.484,138.457-74.181,203.89c40.807,55.279,146.185,44.724,177.911,40.116,31.727,4.608,137.105,15.163,177.912-40.116C1378.805,1089.7,1271.056,986.331,1256.32,951.239Z" transform="translate(-145.287 -277.964)"/><path class="cls-11" d="M990.477,1037.9c-24.032,39.431-50.609,110.98-25.636,144.809,40.807,55.279,156.023,17.143,187.749,12.535,31.727,4.608,137.105,15.163,177.912-40.116,25.845-35.01,7.013-80.879-18.341-121.34A734.634,734.634,0,0,1,990.477,1037.9Z" transform="translate(-145.287 -277.964)"/><path class="cls-12" d="M1072.953,1029.976c4.546-1.128,9.152-2.533,12.866-5.386,4.781-3.671,7.562-9.317,9.989-14.834,32.127-73.05,29.731-156.307,49.949-233.506,1.843-7.038,2.1-12.376,3.426-19.528,1.335-7.183,2.662-14.657.754-21.709s-8.069-13.526-15.37-13.252c-9.647.363-15.028,11.055-18.135,20.2a677.536,677.536,0,0,0-21.019,76.163c-2.319,10.831-4.464,21.961-10.123,31.482s-15.723,17.277-26.791,16.838a532.192,532.192,0,0,0-30.695-165.4c-3.133-8.787-7.129-18.229-15.4-22.553-4.771-2.5-10.338-2.9-15.721-2.946q-6.128-.048-12.237.465c18.956,59.336,76.772,245.8,64.41,275.234-6.488,15.451-31.006,44.137-52.3,76.993A147.072,147.072,0,0,0,1072.953,1029.976Z" transform="translate(-145.287 -277.964)"/><path class="cls-10" d="M1123.355,732.576h-16.909a12.547,12.547,0,0,0-11.557,7.662l-57.443,135.937L1005.074,656.99l-26.476.9s-80.318,31.731-79.439,52.3S941.937,976.117,978.6,988.6s91.46,24.175,99.022,10.818c7.093-12.527,41.04-170.322,58.017-251.74A12.545,12.545,0,0,0,1123.355,732.576Z" transform="translate(-145.287 -277.964)"/><path class="cls-7" d="M1123.355,732.576h-16.909a12.547,12.547,0,0,0-11.557,7.662l-49.65,117.5c-.419,7.476,2.8,15.16,7.923,20.772,6.407,7.013,15.358,11.205,24.456,13.936a100.91,100.91,0,0,0,25.927,4.163c11.331-50.566,23.757-108.949,32.092-148.925A12.545,12.545,0,0,0,1123.355,732.576Z" transform="translate(-145.287 -277.964)"/><path class="cls-12" d="M1232.227,1029.976c-4.545-1.128-9.151-2.533-12.866-5.386-4.78-3.671-7.562-9.317-9.988-14.834-32.127-73.05-29.731-156.307-49.949-233.506-1.843-7.038-2.1-12.376-3.426-19.528-1.335-7.183-2.662-14.657-.754-21.709s8.069-13.526,15.369-13.252c9.648.363,15.029,11.055,18.135,20.2a677.329,677.329,0,0,1,21.02,76.163c2.319,10.831,4.463,21.961,10.123,31.482s15.723,17.277,26.791,16.838a532.192,532.192,0,0,1,30.695-165.4c3.133-8.787,7.129-18.229,15.4-22.553,4.77-2.5,10.337-2.9,15.721-2.946q6.126-.048,12.237.465c-18.956,59.336-76.772,245.8-64.411,275.234,6.488,15.451,31.007,44.137,52.3,76.993A147.075,147.075,0,0,1,1232.227,1029.976Z" transform="translate(-145.287 -277.964)"/><path class="cls-10" d="M1181.826,732.576h16.909a12.547,12.547,0,0,1,11.557,7.662l57.443,135.937,32.372-219.185,26.476.9s80.318,31.731,79.439,52.3-42.778,265.927-79.439,278.413-91.461,24.175-99.023,10.818c-7.092-12.527-41.039-170.322-58.017-251.74A12.546,12.546,0,0,1,1181.826,732.576Z" transform="translate(-145.287 -277.964)"/><path class="cls-7" d="M1181.826,732.576h16.909a12.547,12.547,0,0,1,11.557,7.662l49.65,117.5c.419,7.476-2.8,15.16-7.923,20.772-6.407,7.013-15.358,11.205-24.456,13.936a100.91,100.91,0,0,1-25.927,4.163c-11.331-50.566-23.757-108.949-32.093-148.925A12.546,12.546,0,0,1,1181.826,732.576Z" transform="translate(-145.287 -277.964)"/><path class="cls-13" d="M1143.486,570.366V756.737l-137.394-27.086a12.292,12.292,0,0,1-9.915-12.06V561.952a12.293,12.293,0,0,1,14.169-12.149Z" transform="translate(-145.287 -277.964)"/><path class="cls-13" d="M1166.7,570.366V756.737L1304.1,729.651a12.292,12.292,0,0,0,9.915-12.06V561.952a12.293,12.293,0,0,0-14.169-12.149Z" transform="translate(-145.287 -277.964)"/><rect class="cls-14" x="998.199" y="292.402" width="23.217" height="186.371"/><path class="cls-7" d="M1116.556,1227.417s32.16-86.071-28.229-118.938c-26.974-14.68-60.077-11.639-84.7,6.71-24.811,18.485-50.779,50.8-30.174,98.58,34.968,81.088,175.608,374,175.608,374s17.374,3.588,28.922-23.409S1116.556,1227.417,1116.556,1227.417Z" transform="translate(-145.287 -277.964)"/><path class="cls-15" d="M1152.811,1391.618c-22,46.5-23.6,100.057-24.727,151.669-.005.218-.009.438-.013.656,12.847,26.871,20.987,43.825,20.987,43.825s17.374,3.588,28.922-23.409C1183.615,1551.186,1169.126,1470.646,1152.811,1391.618Z" transform="translate(-145.287 -277.964)"/><path class="cls-16" d="M1182,1468.4s19.967,49.053,17.671,65.34-1.954,93.411-26.614,120.537-22.017,36.373-29.466-79.421c0,0,31.287,7.2,32.707-29.824S1182,1468.4,1182,1468.4Z" transform="translate(-145.287 -277.964)"/><path class="cls-15" d="M1100.327,1150.208c-10.428,9.151-24.882,14.868-38.327,11.444-10.574-2.694-23.884-9.842-30.483-1.151,27.374,15.277,54.694,33.2,71.159,59.871,9.421,15.264,14.785,32.621,20.054,49.766l13.451,43.769c-10.92-49.516-19.625-86.49-19.625-86.49s20.514-54.915-2.005-93.767A87.122,87.122,0,0,1,1100.327,1150.208Z" transform="translate(-145.287 -277.964)"/><path class="cls-11" d="M1073.155,1216.911c-4.188,2.7-6.708,6.677-10.281,10.105a39.606,39.606,0,0,1-12.679,8.367,38.612,38.612,0,0,1-32.948-2.172c-4.486-2.516-8.376,4.175-4.022,6.881,11.788,7.327,26.474,10.113,39.84,5.7,10.656-3.515,25.89-12.879,25.944-25.524C1079.021,1217.416,1075.661,1215.3,1073.155,1216.911Z" transform="translate(-145.287 -277.964)"/><path class="cls-11" d="M1090.441,1231.338a3.9,3.9,0,0,0-5.17.308l-4.076,4.893c-1.626,1.952-1.723,4.7.432,6.366a4.286,4.286,0,0,0,6.268-1.2q1.781-2.646,3.56-5.291A3.922,3.922,0,0,0,1090.441,1231.338Z" transform="translate(-145.287 -277.964)"/><path class="cls-7" d="M1290.6,1115.189c-24.626-18.349-57.73-21.39-84.7-6.71-60.389,32.867-28.228,118.938-28.228,118.938s-23.616,420.974-12.067,447.972,28.922,23.408,28.922,23.408,91.283-403.94,126.251-485.028C1341.379,1165.989,1315.411,1133.674,1290.6,1115.189Z" transform="translate(-145.287 -277.964)"/><path class="cls-11" d="M1272.34,1199.528c-18.846,4.773-39.778,1.226-51.637-15.65-3.244-4.616-10.737-.467-7.691,4.5,12.592,20.511,41.055,32.485,63.7,21.522C1282.633,1207.028,1278.405,1197.993,1272.34,1199.528Z" transform="translate(-145.287 -277.964)"/><path class="cls-11" d="M1161.447,1576.123s-19.967,49.052-17.671,65.339,1.954,93.411,26.614,120.537,22.017,36.373,29.466-79.421c0,0-31.287,7.195-32.707-29.824S1161.447,1576.123,1161.447,1576.123Z" transform="translate(-145.287 -277.964)"/><path class="cls-7" d="M1076.473,665.2c1.245-2.9,4.93-6.1,6.919-3.645a4.828,4.828,0,0,1,.608,3.476l-1.986,24.98c-.151,1.895-.272,3.926.691,5.565s3.465,2.486,4.8,1.133a4.4,4.4,0,0,0,.98-2.552c.892-6.339-.108-12.789.192-19.183s2.265-13.256,7.484-16.964a5.858,5.858,0,0,1,3.317-1.274c4.044.016,5.053,5.6,4.741,9.633q-1,12.886-2,25.772c-.167,2.166-.3,4.49.81,6.357s3.987,2.811,5.491,1.243a4.9,4.9,0,0,0,1.055-2.369c1.733-7.588.374-15.55,1.395-23.265s5.746-16.051,13.478-16.943q-1.026,18.195-2.053,36.392c-.216,3.833.988,9.175,4.816,8.874,3.625-6.883,2.259-15.176,2.532-22.95s3.695-16.878,11.332-18.356c5.287,10.695,1.526,23.353-.442,35.119a110.506,110.506,0,0,0-1.33,24.541c.731,12.723,3.133,27.217-5.328,36.746-17.991,20.261-40.98-7.119-50.547-21.293C1069.574,715.7,1066.684,688.016,1076.473,665.2Z" transform="translate(-145.287 -277.964)"/><path class="cls-7" d="M1229.657,664.649c-1.244-2.9-4.929-6.1-6.919-3.645a4.828,4.828,0,0,0-.608,3.476l1.986,24.98c.151,1.895.272,3.926-.691,5.565s-3.465,2.486-4.8,1.134a4.4,4.4,0,0,1-.98-2.553c-.893-6.339.107-12.789-.193-19.183s-2.265-13.256-7.484-16.964a5.858,5.858,0,0,0-3.316-1.274c-4.044.017-5.053,5.6-4.741,9.633l1.995,25.772c.168,2.166.3,4.49-.81,6.358s-3.987,2.81-5.491,1.242a4.9,4.9,0,0,1-1.055-2.369c-1.733-7.587-.374-15.55-1.395-23.265s-5.746-16.051-13.478-16.943q1.028,18.2,2.053,36.392c.216,3.833-.988,9.175-4.815,8.874-3.626-6.883-2.26-15.176-2.533-22.95s-3.7-16.878-11.332-18.355c-5.286,10.694-1.526,23.352.442,35.118a110.446,110.446,0,0,1,1.33,24.541c-.731,12.723-3.133,27.217,5.328,36.747,17.991,20.26,40.98-7.119,50.547-21.294C1236.556,715.153,1239.446,687.466,1229.657,664.649Z" transform="translate(-145.287 -277.964)"/><path class="cls-17" d="M862.192,951.71h0V1243.8h59.072a27.108,27.108,0,0,0,27.108-27.108v-178.8A86.18,86.18,0,0,0,862.192,951.71Z" transform="translate(-145.287 -277.964)"/><path class="cls-17" d="M1414.515,951.71a86.179,86.179,0,0,0-86.179,86.18v175.016a30.891,30.891,0,0,0,30.891,30.891h55.288V951.71Z" transform="translate(-145.287 -277.964)"/><path class="cls-1" d="M1801.129,1170.4c-6.32,27.095-12.859,54.09-18.269,81.4s-10.893,54.638-16.1,82q-15.46,81.17-30.547,162.4c-5.648,30.7-11.72,61.356-16.291,92.242-1.16,7.831,10.355,11.494,12.2,3.364,6.178-27.161,11.087-54.588,16.3-81.946,5.222-27.377,10.531-54.738,15.58-82.147,9.984-54.2,19.963-108.4,29.553-162.679,5.452-30.86,9.842-61.8,14.259-92.8C1808.429,1167.961,1802.171,1165.935,1801.129,1170.4Z" transform="translate(-145.287 -277.964)"/><path class="cls-1" d="M2056.154,1388.758c-21.884,35.726-43.962,71.334-65.881,107.04q-16.177,26.352-32.239,52.774l-16.518,27.31c-5.262,8.7-12.537,17.82-15.494,27.608-1.973,6.532,6.589,11.244,11.282,6.567,7.221-7.2,11.837-17.974,17.019-26.689l16.31-27.431q15.8-26.574,31.368-53.285c21.169-36.142,42.178-72.378,63.382-108.5C2068.876,1388.2,2059.744,1382.9,2056.154,1388.758Z" transform="translate(-145.287 -277.964)"/><rect class="cls-1" x="989.466" y="265.075" width="29.002" height="3.592"/></g></svg>