<svg id="Layer_1" data-name="Layer 1" xmlns="http://www.w3.org/2000/svg" viewBox="0 0 2134.161 993.82"><defs><style>.cls-1{fill:#fff;}</style></defs><path class="cls-1" d="M354.5,603.973h33.558l-5.034,62.081q65.436-70.47,143.458-70.471,62.92,0,97.317,41.947t34.4,121.646q0,67.128-21.812,133.81T564.653,1005.4q-49.923,45.735-128.776,45.722a281.706,281.706,0,0,1-103.19-19.3L307.52,1207.168l-38.591,5.033ZM542.422,976.041q41.094-41.528,58.725-101.092T618.765,757.5q0-129.183-98.156-129.2-41.958,0-74.665,20.135t-66.276,57.886L338.561,998.272a220.518,220.518,0,0,0,44.882,14.682q22.219,4.621,52.434,4.614Q501.315,1017.568,542.422,976.041Z" transform="translate(-268.929 -279.246)"/><path class="cls-1" d="M815.063,972.266a84.874,84.874,0,0,0-.838,13.422q0,15.946,7.13,23.491t23.071,7.55q14.256,0,32.719-6.711l9.228,30.2q-23.5,10.891-46.98,10.906-30.2,0-46.981-15.94t-16.778-47.82q0-5.033,1.678-20.134l76.342-541.953,38.591-5.033Z" transform="translate(-268.929 -279.246)"/><path class="cls-1" d="M1285.285,604.393q30.615,8.808,64.179,26.426l-46.142,317.118a185.022,185.022,0,0,0-2.516,28.524q0,17.616,6.292,28.943t22.232,17.2l-10.906,28.524q-26.015-7.551-39.431-22.651t-13.423-46.142l.839-12.584q-26.013,37.752-60.822,59.564a140.34,140.34,0,0,1-75.924,21.813q-64.611,0-101.092-45.3t-36.494-125q0-65.437,23.071-131.294t72.988-109.9q49.9-44.045,126.26-44.045Q1254.664,595.583,1285.285,604.393Zm-173.659,62.5q-40.7,39.442-59.564,97.736-18.876,58.32-18.876,115.353,0,67.128,26.425,102.351t74.246,35.235q40.269,0,73.408-24.749t62.5-72.567l38.59-270.138q-40.268-22.65-93.122-22.651Q1152.314,627.463,1111.626,666.893Z" transform="translate(-268.929 -279.246)"/><path class="cls-1" d="M1758.026,603.973l-4.194,31.041-299.5,372.487h243.291l-8.389,34.4H1399.8l5.034-31.041,299.5-372.487H1477.822l5.033-34.4Z" transform="translate(-268.929 -279.246)"/><path class="cls-1" d="M2198.455,425.279,2111.206,1041.9h-32.719l7.551-94.8q-59.579,104.034-149.331,104.028-62.093,0-97.735-45.722-35.668-45.716-35.656-126.26,0-63.747,20.974-129.2t67.115-109.9q46.128-44.457,117.451-44.464,78.847,0,117.451,62.082l33.557-237.419ZM1916.992,667.732q-38.184,39.443-55.369,97.317-17.2,57.887-17.2,114.933,0,66.284,25.587,101.932,25.581,35.667,71.729,35.654,46.974,0,81.377-31.88t71.31-94.8l26.845-194.633Q2085.193,628.3,2013.89,628.3,1955.157,628.3,1916.992,667.732Z" transform="translate(-268.929 -279.246)"/><path class="cls-1" d="M1939.764,1148.945q-145.011,124.119-356.793,124.12-221.2,0-364.167-125.758v-40.145q147.468,128.221,363.347,128.217,203.6,0,357.613-126.578Z" transform="translate(-268.929 -279.246)"/><path class="cls-1" d="M2271.49,348.546q4.545-32.55,24.5-50.925t48.65-18.375q25.9,0,42.174,14.7t16.276,40.25q0,25.552-16.625,43.575T2338.34,399.3q28,.705,46.025,16.8t18.025,45.15a87.433,87.433,0,0,1-8.925,37.975,76.341,76.341,0,0,1-27.3,30.975q-18.375,12.255-45.675,12.25-34.65,0-56.35-25.2l-12.6,90.3-16.8,2.1Zm85.574,169.4a61.642,61.642,0,0,0,21.875-25.375,73.492,73.492,0,0,0,7-30.975q0-26.948-17.5-41.3t-48.649-14.35h-16.45l3.5-13.65h14.7q21,0,35.875-8.05t22.4-21.35a57.317,57.317,0,0,0,7.526-28.7q0-20.648-11.55-30.975T2344.64,292.9q-22.4,0-37.625,14.7t-19.425,42.7l-21,151.2q10.146,14,22.925,20.3t30.275,6.3Q2342.185,528.1,2357.064,517.946Z" transform="translate(-268.929 -279.246)"/></svg>